<?xml version="1.0" encoding="utf-8"?>
<!-- Generator: Adobe Illustrator 26.0.1, SVG Export Plug-In . SVG Version: 6.00 Build 0)  -->
<svg version="1.1" id="Capa_1" xmlns="http://www.w3.org/2000/svg" xmlns:xlink="http://www.w3.org/1999/xlink" x="0px" y="0px"
	 viewBox="0 0 471.7 471.7" style="enable-background:new 0 0 471.7 471.7;" xml:space="preserve">
<style type="text/css">
	.st0{fill:#EE3362;}
	.st1{fill:#BBBDBF;}
</style>
<g>
	<g>
		<path class="st0" d="M52.5,237.3c-21-21-32.5-48.7-32.5-78.2c-0.1-29.5,11.4-57.3,32.3-78.3c20.9-20.9,48.6-32.3,78.1-32.3
			c29.5,0,57.4,11.6,78.4,32.5l27.2,27.2l27-27c20.9-20.9,48.7-32.4,78.3-32.4s57.3,11.5,78.2,32.3c20.9,20.9,32.3,48.6,32.2,78.2
			c0,29.6-11.5,57.4-32.4,78.3L235.8,420.5L52.5,237.3z"/>
		<path class="st1" d="M130.4,68.5c24.2,0,47,9.5,64.2,26.7l13.1,13.1l28.3,28.3l28.3-28.3l12.9-12.9c17.1-17.1,39.9-26.6,64.1-26.6
			c24.2,0,46.9,9.4,64,26.5c17.1,17.1,26.5,39.8,26.4,64l0,0.1v0.1c0,24.2-9.4,47-26.6,64.1L235.8,392.2L66.7,223.1
			c-17.2-17.2-26.7-39.9-26.7-64V159l0-0.1c-0.1-24.1,9.3-46.9,26.5-64C83.6,77.9,106.3,68.5,130.4,68.5 M130.4,28.5
			c-34.8,0-67.6,13.6-92.2,38.2C13.5,91.4-0.1,124.2,0,159.1c0,34.9,13.7,67.6,38.4,92.3l187.8,187.8c2.6,2.6,6.1,4,9.5,4
			c3.4,0,6.9-1.3,9.5-3.9l188.2-187.5c24.7-24.7,38.3-57.5,38.3-92.4c0.1-34.9-13.4-67.7-38.1-92.4c-24.7-24.7-57.4-38.2-92.3-38.2
			s-67.7,13.6-92.4,38.3L236,80l-13.1-13.1C198.2,42.2,165.3,28.5,130.4,28.5L130.4,28.5z"/>
	</g>
</g>
</svg>
