<svg id="Layer_1" data-name="Layer 1" xmlns="http://www.w3.org/2000/svg" viewBox="0 0 230.56 235.42"><defs><style>.cls-1{fill:#231f20;}.cls-2{fill:#fff;}.cls-3{fill:none;stroke:#fff;stroke-miterlimit:10;stroke-width:3px;}</style></defs><path class="cls-1" d="M71.54,123.37c-.68,0-1.38,0-2.09-.06s-1.37-.06-2-.06a4.64,4.64,0,0,1-1.5-.42c-1.17-.53-2.62-1.82-2.62-4.85a21.45,21.45,0,0,1,.24-2.83,19.46,19.46,0,0,0,.21-2.46c0-2.37,0-4.8-.1-7.16s-.09-4.87-.09-7.32c0-1.94.06-3.91.12-5.82s.13-3.83.13-5.72c0-3.61,4.63-3.61,6.16-3.61,4.76,0,12.72,0,15.72,6.76a9.16,9.16,0,0,1,.7,3.48,7.9,7.9,0,0,1-1.91,5.6c3.52,1.76,6.69,5.32,6.69,9.58a11.54,11.54,0,0,1-4.32,9.34A25.48,25.48,0,0,1,71.54,123.37Z"/><path class="cls-2" d="M70,84.56c5.29,0,11.86.26,14.35,5.87a7.5,7.5,0,0,1,.57,2.87c0,4.4-2.42,4.91-2.81,6.25,3.83,1.15,7.59,4.72,7.59,8.93a10.06,10.06,0,0,1-3.76,8.16,23.78,23.78,0,0,1-14.35,5.23c-1.34,0-2.74-.12-4.14-.12a4.2,4.2,0,0,1-.83-.26c-1.41-.64-1.79-2-1.79-3.51,0-1.78.45-3.5.45-5.29,0-4.78-.19-9.63-.19-14.48,0-3.82.25-7.71.25-11.54,0-2.11,3.19-2.11,4.66-2.11m0-3c-6.33,0-7.66,2.78-7.66,5.11,0,1.86-.06,3.8-.12,5.67S62,96.25,62,98.21c0,2.46.05,5,.09,7.35s.1,4.78.1,7.13A19.23,19.23,0,0,1,62,115a23.49,23.49,0,0,0-.25,3c0,4,2.22,5.64,3.55,6.24h0a5.65,5.65,0,0,0,2.07.53c.64,0,1.29,0,2,.06s1.43.06,2.16.06A26.66,26.66,0,0,0,87.79,119a13,13,0,0,0,4.86-10.49c0-4.3-2.66-7.89-6-10.06a10.09,10.09,0,0,0,1.22-5.12,10.29,10.29,0,0,0-.82-4c-3.4-7.69-12.31-7.69-17.1-7.69Z"/><path class="cls-1" d="M98.07,119.36a7,7,0,0,1-3.32-.76c-2.19-1.39-2.21-4.48-2.23-6.73,0-.46,0-.88,0-1.25-.29-5-.58-11-.58-16.93,0-4.47.13-6.94.44-8a4.62,4.62,0,0,1,2.51-2.52l.07,0,.07,0a67.66,67.66,0,0,1,11.1-1.26c1,0,4,0,4,3.28a4.36,4.36,0,0,1-1.33,3l-.22.21-.28.12a18.29,18.29,0,0,1-5.07,1.06c-.72.08-1.4.16-2.06.27,0,.13,0,.27-.08.41l0,.8c0,.81,0,1.54-.06,2.26s-.06,1.36-.06,2,0,1.26.07,1.81c.39-.06.8-.15,1.22-.25a12.12,12.12,0,0,1,2.69-.38c1.71,0,3.54,1,3.54,4,0,3.21-3.85,4.21-6.39,4.87l-.83.22c0,.3,0,.59,0,.89,0,1.43.09,2.91.26,4.33.93-.13,1.85-.28,2.67-.48.39-.09.77-.2,1.15-.32a10.91,10.91,0,0,1,3.22-.61,5,5,0,0,1,1.62.2l.21.08.19.13a3.81,3.81,0,0,1,1.9,3.51,4,4,0,0,1-1.46,2.72c-1.41,1.56-4,1.87-6,2.11l-.83.1c-.63.1-1.3.27-2,.44A17.23,17.23,0,0,1,98.07,119.36Z"/><path class="cls-2" d="M106.11,83.36c1.34,0,2.49.13,2.49,1.78a2.86,2.86,0,0,1-.9,2c-2.48,1-5.35.83-7.9,1.47a12.42,12.42,0,0,1-.26,1.46l.06,1.09c0,1.4-.12,2.81-.12,4.21a18.89,18.89,0,0,0,.25,3.31c.19,0,.38.07.51.07,1.6,0,3.13-.7,4.72-.7s2,1.08,2,2.48c0,2.75-5.29,3.19-7.27,4a56.13,56.13,0,0,0,.58,8c1.4-.19,2.93-.38,4.27-.7a17.31,17.31,0,0,1,4-.89,3.51,3.51,0,0,1,1.15.13,2.36,2.36,0,0,1,1.27,2.29c0,.64-.64,1.28-1,1.66-1.28,1.4-4.15,1.53-5.93,1.79-2,.32-4,1.08-6,1.08a5.63,5.63,0,0,1-2.48-.51c-1.92-1.21-1.47-4.85-1.6-6.82-.32-5.62-.57-11.23-.57-16.84,0-1.59,0-6.25.38-7.59a3.4,3.4,0,0,1,1.6-1.53,66.63,66.63,0,0,1,10.71-1.21m0-3a69.29,69.29,0,0,0-11.48,1.31l-.15,0-.14.05a6.12,6.12,0,0,0-3.43,3.55c-.35,1.25-.49,3.68-.49,8.38,0,6,.29,12,.58,17,0,.32,0,.74,0,1.18,0,2.45,0,6.14,2.94,8a8.3,8.3,0,0,0,4.11,1,19,19,0,0,0,4.55-.7c.67-.17,1.31-.32,1.9-.42l.77-.1c2.13-.25,5-.6,6.87-2.57a5.38,5.38,0,0,0,1.86-3.74,5.29,5.29,0,0,0-2.53-4.73l-.37-.27-.43-.14a6.31,6.31,0,0,0-2.09-.28,12.43,12.43,0,0,0-3.65.67c-.38.12-.74.23-1.06.3s-.64.14-1,.21c0-.76-.07-1.54-.1-2.34,2.69-.7,7.19-2,7.19-6.24,0-3.79-2.53-5.48-5-5.48a11.7,11.7,0,0,0-2.48.3c0-.63,0-1.27.06-2s.06-1.46.06-2.23l.76-.09a20,20,0,0,0,5.48-1.16l.56-.23.43-.43a5.81,5.81,0,0,0,1.77-4.1c0-1.43-.54-4.78-5.49-4.78Z"/><path class="cls-1" d="M116.76,119.23c-2.31,0-4.05-2.61-4.23-4.41l0-.38.14-.35c.61-1.45,1.33-2.82,2-4.14.6-1.13,1.22-2.3,1.74-3.48.83-2,1.81-4,2.75-6,1.12-2.33,2.29-4.73,3.22-7.17l.08-.19c.94-2.29,2.36-5.75,6.1-5.75a4.14,4.14,0,0,1,1.08.17l.16,0,.28,0c1.41.1,3.16.23,4.23,2.47,1.33,2.89,2.94,5.81,4.5,8.63l.44.8.85,1.58c.92,1.72,1.87,3.49,2.88,5.12.19.3.43.63.66,1s.55.76.79,1.13c.56.88,1.09,1.78,1.63,2.69.33.56.66,1.12,1,1.67l.22.36v.57a4,4,0,0,1-2.15,3.51l-.35.21h-.4c-.4,0-.8,0-1.21.08a14.29,14.29,0,0,1-1.54.11,5.76,5.76,0,0,1-1.74-.27l-.12,0-.11-.06c-.9-.47-1.66-1.7-3.14-4.21a28.88,28.88,0,0,0-2.84-4.27c-1.61-.14-3.29-.21-5.25-.21-.65,0-1.3,0-1.94,0l-1.16,0-.91,1.47c-.73,1.18-1.42,2.29-2.08,3.45-.17.32-.35.74-.53,1.16a12.21,12.21,0,0,1-1.07,2.14C120.1,117.68,118.45,119.23,116.76,119.23Z"/><path class="cls-2" d="M128.56,88.9a6.09,6.09,0,0,1,1,.19c1.53.13,2.62.07,3.38,1.66,1.47,3.19,3.25,6.38,5,9.5,1.21,2.24,2.42,4.6,3.76,6.76.44.71,1,1.41,1.47,2.11.89,1.4,1.72,2.87,2.61,4.33v.2a2.54,2.54,0,0,1-1.4,2.16c-1,0-1.79.2-2.74.2a4.33,4.33,0,0,1-1.28-.2c-1.21-.63-4.15-7.2-6.06-8.61-2-.19-3.89-.25-5.87-.25-1.34,0-2.61.06-4,.06-1.15,1.92-2.36,3.77-3.44,5.68-.52,1-1,2.36-1.54,3.19a4.3,4.3,0,0,1-2.74,1.85c-1.34,0-2.61-1.79-2.74-3.06,1.08-2.62,2.61-5,3.76-7.59,1.85-4.47,4.28-8.68,6-13.2.89-2.17,2-5,4.78-5m0-3c-4.75,0-6.53,4.35-7.49,6.68l-.07.15v0l0,0c-.9,2.37-2,4.64-3.16,7-1,2-1.93,4-2.79,6-.49,1.12-1.07,2.2-1.68,3.35-.72,1.35-1.46,2.75-2.09,4.27l-.29.69.07.76c.28,2.72,2.7,5.76,5.73,5.76,2.27,0,4.36-1.88,5.22-3.16a13.77,13.77,0,0,0,1.21-2.39c.17-.4.33-.78.48-1.05.63-1.12,1.31-2.21,2-3.36l.49-.78h.35c.63,0,1.26,0,1.9,0,1.68,0,3.14,0,4.52.15.68.88,1.68,2.59,2.28,3.59,1.63,2.76,2.47,4.12,3.73,4.78l.22.11.23.08a7.56,7.56,0,0,0,2.23.35,13.83,13.83,0,0,0,1.69-.12c.39,0,.73-.08,1-.08h.81l.7-.4a5.47,5.47,0,0,0,2.89-4.84v-1l-.44-.72c-.34-.55-.66-1.11-1-1.66-.53-.89-1.08-1.82-1.65-2.72-.28-.43-.56-.83-.84-1.21s-.46-.63-.63-.9c-1-1.55-1.9-3.31-2.81-5l-.85-1.57-.43-.79c-1.55-2.8-3.15-5.71-4.45-8.53-1.47-3.07-4-3.26-5.5-3.37H130a5.88,5.88,0,0,0-1.43-.21Z"/><path class="cls-1" d="M157.52,117.51c-1.63,0-3.61-.33-4.54-2.91-.24-.71-.35-2.87-.29-12.34v-1.37c0-2.42-.14-5.24-.42-8-.52,0-1.06.09-1.62.16s-1.36.17-2.07.2c-.38,0-.84.12-1.31.2a14.58,14.58,0,0,1-2.65.31,5.24,5.24,0,0,1-2.94-.88c-1.07-.8-1.62-3-1.62-3.81,0-1.82.84-4.7,3.15-5.23a30.57,30.57,0,0,1,7-.61A6.07,6.07,0,0,0,151.6,83c0-.32,0-.7,0-1.06,0-1.56.05-4.48,3.22-4.84.31,0,.59-.06.88-.1a12.26,12.26,0,0,1,1.78-.16,3.51,3.51,0,0,1,2.61.94,4.7,4.7,0,0,1,1,3.55v.13a4.89,4.89,0,0,0,0,.54,1.66,1.66,0,0,0,.51.07,11.77,11.77,0,0,0,2-.24,14.7,14.7,0,0,1,2.45-.27,4.27,4.27,0,0,1,3.88,1.77l.16.25.05.29a13.59,13.59,0,0,1,.28,2.44,4.57,4.57,0,0,1-2.08,4.29l-.26.15-1.7.24c-1.51.22-3,.44-4.61.54,0,.11,0,.24,0,.38.07,1,.11,1.64.09,2,.13,4,.4,7.93.63,11.45.19,2.26.39,4.63.39,6.92A5.22,5.22,0,0,1,157.52,117.51Z"/><path class="cls-2" d="M157.52,78.38c2.17,0,2.1,1.53,2.1,3.12a6.22,6.22,0,0,0,.19,1.53,3.15,3.15,0,0,0,1.85.58c1.47,0,2.94-.51,4.4-.51a3,3,0,0,1,2.62,1.08,12.34,12.34,0,0,1,.25,2.17,3.22,3.22,0,0,1-1.34,3,54.77,54.77,0,0,1-7.27.76,7.45,7.45,0,0,0-.06,1.15c0,.26.19,2.62.13,2.68.13,3.89.38,7.78.64,11.61.19,2.29.38,4.59.38,6.82a3.74,3.74,0,0,1-3.89,3.64c-1.53,0-2.55-.32-3.13-1.92-.32-1-.19-11.48-.19-13.2a94.58,94.58,0,0,0-.57-9.5,2.41,2.41,0,0,0-.7-.07c-1.47,0-2.94.32-4.4.39a37.75,37.75,0,0,1-3.9.51,3.75,3.75,0,0,1-2-.58,4.91,4.91,0,0,1-1-2.61c0-1.21.58-3.44,2-3.76a28.86,28.86,0,0,1,6.63-.58,6.49,6.49,0,0,0,2.68-.51c.77-1.72-.64-5.23,2.17-5.55.77-.06,1.66-.25,2.49-.25m0-3a14.63,14.63,0,0,0-2,.17l-.75.09h-.09c-4.22.48-4.51,4.39-4.54,6a31.65,31.65,0,0,0-7.29.66c-3.14.71-4.29,4.38-4.29,6.68,0,.86.55,3.76,2.22,5a6.74,6.74,0,0,0,3.84,1.18,16.55,16.55,0,0,0,2.92-.33c.43-.08.83-.15,1.2-.19.73,0,1.42-.12,2.09-.2h.08c.17,2.24.24,4.46.28,6.43,0,.27,0,.74,0,1.33-.07,11,.09,12,.36,12.79v.07a5.73,5.73,0,0,0,6,3.9,6.7,6.7,0,0,0,6.89-6.64c0-2.36-.2-4.75-.39-7.07-.24-3.49-.5-7.5-.63-11.45,0-.27,0-.57,0-.91,1.09-.11,2.17-.27,3.23-.42l1.4-.2.59-.08.52-.31c1.29-.75,2.82-2.33,2.82-5.58a14.86,14.86,0,0,0-.3-2.7l-.11-.59-.32-.5a5.68,5.68,0,0,0-5.14-2.46,15.59,15.59,0,0,0-2.71.3l-.74.12a5.38,5.38,0,0,0-1.42-3.76,5,5,0,0,0-3.67-1.38Z"/><path class="cls-1" d="M103.08,157.7a6.2,6.2,0,0,1-1.25-.15c-6.74-1.28-10.77-6.44-10.77-13.78,0-1.57.19-6.94,2.69-10.06,2.73-3.42,8-6.88,12.9-6.88,4.16,0,7.11.32,10.15,4.59,1.3,1.79,1.94,4.25,1.94,7.5a20.25,20.25,0,0,1-2.59,10.23C113.73,153.19,107.76,157.7,103.08,157.7Z"/><path class="cls-2" d="M106.65,128.33c4.15,0,6.38.39,8.93,4a11.45,11.45,0,0,1,1.66,6.63,18.86,18.86,0,0,1-2.36,9.44c-2.11,3.51-7.59,7.84-11.8,7.84a5.25,5.25,0,0,1-1-.12c-6.37-1.22-9.56-6-9.56-12.31,0-2.81.57-6.89,2.36-9.12,2.55-3.19,7.52-6.32,11.73-6.32m0-3c-5.33,0-11.12,3.75-14.08,7.44-2.79,3.5-3,9.3-3,11,0,8.12,4.49,13.83,12,15.25a7.18,7.18,0,0,0,1.52.18c5.74,0,12-5.4,14.37-9.3,2.52-4.06,2.79-9,2.79-11,0-3.58-.73-6.32-2.23-8.39-3.44-4.81-7-5.2-11.36-5.2Z"/><path class="cls-1" d="M133.7,169.39c-6.82,0-11.73-4.27-13.14-11.44-.3-1.54-1.15-6.84.7-10.38,2-3.88,6.56-8.3,11.33-9.24a21.14,21.14,0,0,1,4-.5c2.55,0,4.59.91,6.85,3,1.62,1.51,2.72,3.8,3.35,7a20.34,20.34,0,0,1-.56,10.54c-1.6,4.43-6.59,10-11.18,10.91a5.14,5.14,0,0,1-1.13.09Z"/><path class="cls-2" d="M136.59,139.33c2,0,3.74.66,5.82,2.62a11.48,11.48,0,0,1,2.91,6.19,18.89,18.89,0,0,1-.5,9.72c-1.38,3.85-5.93,9.16-10.06,10a3.87,3.87,0,0,1-.84.06h-.22c-6.43,0-10.45-4.06-11.66-10.23-.55-2.75-.77-6.87.55-9.4,1.89-3.62,6.16-7.65,10.29-8.46a19.67,19.67,0,0,1,3.71-.47m0-3h0a22.87,22.87,0,0,0-4.29.52c-5.23,1-10.18,5.82-12.37,10-2.07,4-1.16,9.71-.84,11.37,1.56,7.92,7,12.65,14.61,12.65h.22a7.29,7.29,0,0,0,1.42-.11c5.63-1.11,10.76-7.63,12.31-11.91,1.68-4.46,1-9.4.61-11.31-.69-3.51-1.94-6.06-3.81-7.8a10.89,10.89,0,0,0-7.86-3.43Z"/><path class="cls-1" d="M159.35,162.58c-1.62,0-3.61-.33-4.53-2.9-.24-.71-.35-2.88-.29-12.35V146c0-2.42-.14-5.24-.42-8.05-.53,0-1.06.1-1.62.17s-1.36.16-2.07.19c-.38,0-.84.13-1.31.21a14.71,14.71,0,0,1-2.65.3,5.22,5.22,0,0,1-2.94-.87c-1.07-.8-1.62-3-1.62-3.81,0-1.82.84-4.7,3.14-5.23a30.7,30.7,0,0,1,7-.61,5.66,5.66,0,0,0,1.42-.16c0-.31,0-.7,0-1.05,0-1.57.05-4.48,3.22-4.84l.87-.1a12.36,12.36,0,0,1,1.78-.17,3.56,3.56,0,0,1,2.62.94,4.77,4.77,0,0,1,1,3.56v.13a4.58,4.58,0,0,0,0,.53,1.66,1.66,0,0,0,.51.07,11.72,11.72,0,0,0,1.94-.23,14.93,14.93,0,0,1,2.46-.28,4.27,4.27,0,0,1,3.88,1.78l.16.25.05.29a14.44,14.44,0,0,1,.28,2.44,4.58,4.58,0,0,1-2.08,4.29l-.26.15-1.72.24c-1.5.22-3,.44-4.6.53,0,.11,0,.25,0,.39.07,1,.11,1.63.09,2.05.13,3.95.39,7.93.63,11.44.19,2.27.38,4.63.38,6.93A5.2,5.2,0,0,1,159.35,162.58Z"/><path class="cls-2" d="M159.35,123.45c2.17,0,2.11,1.54,2.11,3.13a5.83,5.83,0,0,0,.19,1.53,3.19,3.19,0,0,0,1.85.57c1.47,0,2.93-.51,4.4-.51a2.93,2.93,0,0,1,2.61,1.09,12.36,12.36,0,0,1,.26,2.17,3.22,3.22,0,0,1-1.34,3,55,55,0,0,1-7.27.77,7.39,7.39,0,0,0-.06,1.15c0,.25.19,2.61.12,2.68.13,3.89.39,7.78.64,11.6.19,2.3.38,4.6.38,6.83a3.73,3.73,0,0,1-3.89,3.63c-1.53,0-2.55-.32-3.12-1.91-.32-1-.19-11.48-.19-13.2a94.79,94.79,0,0,0-.58-9.51,2.72,2.72,0,0,0-.7-.06c-1.47,0-2.93.32-4.4.38a37.56,37.56,0,0,1-3.89.51,3.8,3.8,0,0,1-2-.57,4.91,4.91,0,0,1-1-2.61c0-1.22.57-3.45,2-3.77a28.81,28.81,0,0,1,6.63-.57,6.52,6.52,0,0,0,2.68-.51c.76-1.72-.64-5.23,2.17-5.55.76-.06,1.65-.26,2.48-.26m0-3a14.7,14.7,0,0,0-2,.18l-.74.09h-.09c-4.23.48-4.52,4.39-4.55,6a31.53,31.53,0,0,0-7.28.65c-3.14.72-4.29,4.39-4.29,6.69,0,.85.55,3.75,2.22,5a6.7,6.7,0,0,0,3.84,1.17,16.49,16.49,0,0,0,2.91-.32c.43-.08.84-.15,1.21-.19.73,0,1.42-.12,2.09-.2h.07c.18,2.24.25,4.46.29,6.43,0,.27,0,.73,0,1.32-.07,11,.09,12,.35,12.8v0l0,0a5.73,5.73,0,0,0,5.94,3.89,6.69,6.69,0,0,0,6.89-6.63c0-2.36-.2-4.76-.39-7.08-.28-4.21-.51-7.76-.63-11.45,0-.27,0-.57,0-.9,1.1-.12,2.18-.27,3.24-.43l1.39-.19.6-.08L171,137c1.29-.76,2.82-2.34,2.82-5.58a15.93,15.93,0,0,0-.3-2.71l-.11-.58-.32-.5a5.67,5.67,0,0,0-5.14-2.47,15.71,15.71,0,0,0-2.72.3l-.73.13a5.4,5.4,0,0,0-1.42-3.77,5,5,0,0,0-3.68-1.38Z"/><path class="cls-1" d="M66.47,168.42a4.79,4.79,0,0,1-4.56-4.88,15.46,15.46,0,0,1,.14-1.86,13.6,13.6,0,0,0,.11-1.52c0-.94,0-1.87.07-2.79s.06-1.78.06-2.69c0-5.29-.15-10.3-.44-14.89,0-.25,0-.4,0-.55s0-.46,0-.7c0-1.26.11-2.51.22-3.72,0-.39.15-1.72.15-1.72l.37-.38c1.49-1.54,4-1.86,5.88-1.86a15.32,15.32,0,0,1,5.34.91l.64.25a11.26,11.26,0,0,1,6.29,4.74c2.25,3.79,2.28,8.41.21,11.12.65,1.34,1.4,2.62,2.19,4A48.52,48.52,0,0,1,85.83,157a12.21,12.21,0,0,0,1.1,2,6.68,6.68,0,0,1,1.36,4.26A3.8,3.8,0,0,1,87.13,166a8.29,8.29,0,0,1-4.23,1.83,5.1,5.1,0,0,1-1.62-.27l-.39-.13-.73-.85a3.08,3.08,0,0,1-.82-1.22,5.85,5.85,0,0,0-.48-1c-.22-.43-.48-.84-.75-1.27s-.38-.6-.56-.9c-.35-.63-.67-1.28-1-1.94-.22-.46-.45-.92-.69-1.37l-3.07-5.61a9.22,9.22,0,0,1-1.36.09c0,.57,0,1.13,0,1.69,0,1.88.07,3.68.19,5.51v.1a9,9,0,0,0,.08,1A10.51,10.51,0,0,1,71.8,163,5.84,5.84,0,0,1,66.47,168.42Z"/><path class="cls-2" d="M68.4,132.36a13.62,13.62,0,0,1,4.77.8c1.7.69,4.44,1.41,6.21,4.37,2.27,3.81,1.82,8.22-.28,10.07,1.53,3.51,3.83,6.5,5.36,10,1.14,2.68,2.33,2.89,2.33,5.64a2.36,2.36,0,0,1-.63,1.65,6.87,6.87,0,0,1-3.26,1.47,3.5,3.5,0,0,1-1.14-.19c-1.54-1.79-.49-.47-1.58-2.51-.38-.76-.89-1.47-1.34-2.23-.57-1-1.08-2.17-1.65-3.25l-3.64-6.64a13.57,13.57,0,0,1-3.57.39c-.07,1-.07,2.1-.07,3.12,0,1.91.07,3.76.2,5.61,0,.77.19,1.53.19,2.3a4.41,4.41,0,0,1-3.83,3.95,3.3,3.3,0,0,1-3.06-3.38c0-1.14.25-2.23.25-3.38,0-1.85.13-3.63.13-5.48,0-5-.13-10-.44-15,0-.38-.07-.76-.07-1.15,0-1.59.19-3.19.32-4.78,1-1,2.88-1.4,4.8-1.4m0-3h0c-2.15,0-5.1.4-7,2.31l-.75.78-.09,1.07c0,.39-.07.78-.1,1.17-.11,1.24-.23,2.52-.23,3.85,0,.32,0,.6,0,.83s0,.21,0,.32v.19c.29,4.56.44,9.54.44,14.8,0,.87,0,1.73-.06,2.64s-.07,1.87-.07,2.84c0,.41,0,.87-.1,1.35a17.38,17.38,0,0,0-.15,2,6.31,6.31,0,0,0,6.06,6.38A7.35,7.35,0,0,0,73.3,163a13,13,0,0,0-.12-1.52,6.56,6.56,0,0,1-.07-.78v-.2c-.09-1.27-.14-2.53-.17-3.81l1.62,3c.22.4.44.85.66,1.29.32.66.65,1.33,1,2,.21.37.41.68.61,1s.49.77.66,1.1l0,0v0c.21.39.34.67.4.81A4.49,4.49,0,0,0,79,167.6l.46.53.54.63.79.26a6.55,6.55,0,0,0,2.09.35c2.51,0,5.13-2.12,5.16-2.14l0,0,0,0a5.3,5.3,0,0,0,1.68-3.93,8.15,8.15,0,0,0-1.6-5.08,10.17,10.17,0,0,1-1-1.74,47.1,47.1,0,0,0-2.85-5.34C83.74,150,83.14,149,82.6,148c1.87-3.23,1.71-8-.64-12a12.66,12.66,0,0,0-7-5.38l-.61-.24a16.59,16.59,0,0,0-5.9-1Z"/><path class="cls-1" d="M86.48,195.68h-.35l-.1,0a1.85,1.85,0,0,1-.58-.16l-5.85-2.85h6.5l.34,0,.31,0,11.12,3Z"/><path class="cls-2" d="M86.1,194.14l.24,0,.14,0h-.29l-.09,0m0-3H73.4l11.36,5.68a3.24,3.24,0,0,0,1.1.32H86a3.56,3.56,0,0,0,.5,0h24.37l-23.64-5.91a2.22,2.22,0,0,0-.38-.07h0l-.15,0-.54,0Z"/><line class="cls-3" x1="102.51" y1="49.11" x2="102.22" y2="53.89"/><path class="cls-1" d="M155.84,220.21c-.11-.17-11.11-16.79-21.94-17.72-6.79-.58-13.49-1.53-20.33-2.54-6.45-.94-12.89-2-18.94-2.95l-.49-.08c-2.18-.35-4.37-.71-6.56-1l-1.29-.18-.19,0h0l-.15,0c-.41,0-.74-.06-1-.11a10.21,10.21,0,0,1-1-.17,79.06,79.06,0,0,1-12.69-3.82C52.23,184,37.71,171,30.24,154.91c-4.06-8.76-6.71-18.66-8.34-31.16-1.65-12.68-.81-23,2.58-31.64C28.61,81.59,36.41,72.55,47.69,65.2L39.6,51.35l14.2-8.28,8.42,14.41c.94-.41,1.93-.82,3-1.24L52.63,16.76l7.83-2.48,7.83-2.5L80.83,51.16a133.45,133.45,0,0,1,13.48-2.63L96.79,7.89l8.2.5,8.2.49L110.86,47.1c2-.07,4-.1,6.09-.1,5.94,0,12.16.3,18.49.89a251.87,251.87,0,0,1,32.71,4.88c11.87,2.69,20.28,8.23,25,16.46S199.92,86.87,202,96.1c.27,1.18.52,2.34.79,3.5a221.54,221.54,0,0,1,5.15,33.5,139.82,139.82,0,0,1-1.16,32,46,46,0,0,1-9.83,21.53,38.13,38.13,0,0,1-20.69,13.73c-10.85,3-17.68,19.45-17.75,19.62l-1.08,2.64ZM100,168.62a3.07,3.07,0,0,1,.53,0c3.5.56,7,1,10.4,1.33,2.86.32,5.82.65,8.79,1.08,3.53.52,6.19,3.7,8.76,6.77,2.38,2.86,4.85,5.82,7.63,6a70.1,70.1,0,0,1,7.7,1.17,49,49,0,0,0,9.36,1.19h.42c6.44-.1,13.74-.22,20.39-2.23,5-1.51,8.85-4.83,12.79-11.1,3.38-5.34,4.28-11.39,4.76-17.14.4-4.81-4.4-11.12-9-17.21-4.46-5.87-8.68-11.42-9.27-16.51-.63-5.51,3-9.75,6.54-13.85,3.35-3.89,6.51-7.57,5.43-11.81-.31-1.23-.61-2.52-.92-3.85-1.54-6.69-3.3-14.28-8-18.67s-12.51-5.66-19.32-6.69c-1.08-.16-2.14-.32-3.15-.49a10.67,10.67,0,0,0-1.74-.14c-4.73,0-10.93,2.62-16.92,5.15-6.36,2.68-12.36,5.22-17.38,5.22h-.53c-7.29-.27-13.61-2.07-19.71-3.81-5.8-1.65-11.28-3.2-16.93-3.2a28.76,28.76,0,0,0-11.79,2.51C54.32,78.76,49.5,83.5,47.45,100.79c-.68,5.77,1.95,13.54,4.28,20.39,1.2,3.53,2.33,6.86,3,9.83.89,3.91,0,8.75-.93,13.88-1.15,6.24-2.33,12.7.26,16.26,8.9,12.25,18.72,15.13,33.8,18.36,1.17-.12,3.37-3,4.84-4.87C95.1,171.55,97.36,168.62,100,168.62Z"/><path class="cls-2" d="M98.19,9.48l6.7.41,6.71.4-2.34,38.38c2.57-.12,5.13-.17,7.7-.17,6.14,0,12.27.31,18.34.88a254.66,254.66,0,0,1,32.51,4.85C177.6,56.45,186.7,61,191.86,70s7.17,20,9.43,30a221.34,221.34,0,0,1,5.12,33.28,137.78,137.78,0,0,1-1.14,31.63,44.55,44.55,0,0,1-9.53,20.84,36.54,36.54,0,0,1-19.91,13.22c-11.71,3.25-18.74,20.49-18.74,20.49S145.72,202,134,201c-6.77-.58-13.51-1.54-20.24-2.53-6.31-.92-12.61-1.93-18.91-2.95l-7.06-1.13-1.54-.22h.21l-.14,0-.24,0h-.17a8,8,0,0,1-.87-.1,7.44,7.44,0,0,1-.91-.14,77.48,77.48,0,0,1-12.47-3.75c-17-6.76-32.28-19.05-40.08-35.87-4.49-9.69-6.84-20.17-8.22-30.72-1.33-10.24-1.34-21.15,2.49-30.9,4.59-11.69,13.42-20.44,23.84-27l-8.06-13.8,5.81-3.39,5.8-3.38L61.6,59.39c1.8-.81,3.62-1.56,5.44-2.27L54.51,17.74l6.4-2,6.4-2L79.83,53a129.85,129.85,0,0,1,15.9-3.12L98.19,9.48m19.52,65.94h-.48c-14.09-.53-24.86-7-36.69-7A30.13,30.13,0,0,0,68.14,71C52.94,77.73,48.05,83,46,100.61c-1.08,9.09,5.29,21.89,7.31,30.74,1.95,8.49-5.57,23.6-.42,30.68,9.26,12.74,19.66,15.73,34.86,19h.11c3.73,0,8.41-10.89,12.13-10.88a1.37,1.37,0,0,1,.29,0c6.48,1,12.72,1.47,19.21,2.42,6.14.9,9.9,12.3,16.49,12.81,5.95.46,11.26,2.36,17.18,2.36h.44c7-.11,14.08-.26,20.8-2.29,6.07-1.83,10.09-6.12,13.63-11.74,3.35-5.31,4.43-11.19,5-17.81.83-10.1-17.14-24-18.3-34S189.07,105.75,186.6,96c-1.93-7.61-3.35-17.64-9.36-23.25s-15.67-6.3-23.25-7.56a11.59,11.59,0,0,0-2-.16c-9.95,0-24.77,10.37-34.3,10.37M86.16,194.15h0M95.38,6.3l-.18,3L92.89,47.22c-3.79.58-7.49,1.3-11,2.15L70.17,12.76,69.26,9.9l-2.86.91-6.4,2-6.39,2-2.87.91.91,2.86L63.34,55.37l-.49.21-7-12L54.34,41l-2.59,1.51L46,45.91,40.14,49.3l-2.59,1.51,1.51,2.59,6.62,11.33c-10.9,7.38-18.5,16.39-22.6,26.83-3.48,8.86-4.35,19.45-2.67,32.38,1.65,12.66,4.35,22.7,8.47,31.6,7.63,16.44,22.43,29.72,41.69,37.4a80.47,80.47,0,0,0,13,3.89,9.27,9.27,0,0,0,1.13.18,8.12,8.12,0,0,0,1.07.12h0l.11,0H86l.18,0,1.24.18,7,1.12c6.07,1,12.52,2,19,3,6.87,1,13.61,2,20.42,2.55,8.38.71,17.87,12.54,20.81,17l3.13,4.78,2.16-5.29a52.73,52.73,0,0,1,4.74-8.56c2.65-3.85,6.88-8.74,12-10.17a39.57,39.57,0,0,0,21.46-14.25,47.51,47.51,0,0,0,10.14-22.22A141.74,141.74,0,0,0,209.41,133a223.35,223.35,0,0,0-5.19-33.73c-.26-1.15-.52-2.31-.78-3.49-2.08-9.34-4.22-19-9-27.28-4.95-8.62-13.7-14.4-26-17.19a254.79,254.79,0,0,0-32.9-4.91c-6.37-.59-12.64-.89-18.62-.89q-2.26,0-4.5.06l2.14-35.09.18-3-3-.18-6.71-.4-6.69-.41-3-.18Zm22.33,72.12c5.32,0,11.46-2.59,18-5.34,5.86-2.47,11.92-5,16.34-5a8.73,8.73,0,0,1,1.49.12c1,.17,2.08.33,3.17.49,6.6,1,14.07,2.14,18.53,6.3s6.07,11.44,7.57,17.92c.31,1.35.61,2.63.93,3.88.82,3.25-1.39,6.12-5.12,10.46-3.56,4.15-7.6,8.84-6.89,15,.64,5.5,5,11.21,9.57,17.25,4.25,5.59,9.07,11.94,8.72,16.18-.46,5.55-1.32,11.39-4.52,16.46-3.74,5.94-7.32,9.07-12,10.47-6.45,1.95-13.64,2.06-20,2.16h-.4a47.54,47.54,0,0,1-9.08-1.16,69.08,69.08,0,0,0-7.87-1.19c-2.14-.17-4.4-2.88-6.59-5.5-2.75-3.29-5.59-6.69-9.69-7.29-3-.44-6-.77-8.84-1.09-3.37-.37-6.86-.76-10.33-1.32a4.9,4.9,0,0,0-.77-.06h0c-3.33,0-5.81,3.2-8.43,6.6-1.08,1.39-2.83,3.67-3.76,4.22-14.49-3.12-24-6-32.48-17.69-2.21-3-1.08-9.17,0-15.1.93-5,1.88-10.28.92-14.48-.7-3-1.84-6.41-3.05-10C50.87,114,48.3,106.4,48.94,101c2-16.67,6.36-21,20.41-27.18A27.39,27.39,0,0,1,80.54,71.4c5.44,0,10.82,1.53,16.52,3.15,6.19,1.76,12.59,3.58,20.06,3.86Z"/></svg>